<svg width="218" height="100" viewBox="0 0 218 100" xmlns="http://www.w3.org/2000/svg"><title>Logos/ADoP/Coloured</title><g id="Symbols" fill="none" fill-rule="evenodd"><g id="Header/Desktop" transform="translate(-120 -25)"><g transform="translate(120 25)" id="Logo/ADoP/Coloured"><g id="Logos/ADoP/Coloured" transform="translate(0 .639)"><path d="M8.79 34.768L0 55.791h3.596l2.055-5.04h9.446l2.026 5.04h3.71l-8.79-21.023H8.79zm1.57 4.384l3.453 8.349H6.935l3.424-8.35z" id="Fill-1" fill="#1C3F95"></path><path d="M25.198 55.79h-3.454V40.046h3.454v2.446c.97-1.491 2.368-2.774 4.709-2.774 3.396 0 5.365 2.385 5.365 6.053v10.02h-3.453v-8.946c0-2.445-1.17-3.847-3.226-3.847-1.997 0-3.395 1.461-3.395 3.907v8.885z" id="Fill-2" fill="#1C3F95"></path><path d="M44.317 42.76c-2.397 0-4.28 1.73-4.28 4.353 0 2.624 1.911 4.383 4.28 4.383 2.397 0 4.423-1.759 4.423-4.353 0-2.654-2.026-4.383-4.423-4.383m-.285 17.86c-2.483 0-4.795-.655-6.735-1.877l1.284-2.714c1.598 1.043 3.31 1.67 5.365 1.67 3.082 0 4.766-1.67 4.766-4.831v-1.223c-1.256 1.7-2.825 2.893-5.308 2.893-3.539 0-6.85-2.714-6.85-7.395 0-4.682 3.34-7.425 6.85-7.425 2.54 0 4.11 1.222 5.28 2.683v-2.355h3.453V52.57c0 5.576-2.911 8.05-8.105 8.05" id="Fill-4" fill="#1C3F95"></path><path id="Fill-6" fill="#1C3F95" d="M54.533 55.79h3.453V34.023h-3.453z"></path><path d="M60.582 55.79h3.454V40.047h-3.454v15.745zm-.143-18.16h3.71v-3.428h-3.71v3.429z" id="Fill-8" fill="#1C3F95"></path><path d="M73.395 56.148c-4.48 0-7.79-3.667-7.79-8.17s3.31-8.26 7.82-8.26c2.852 0 4.622 1.104 6.021 2.713l-2.14 2.416c-1.057-1.164-2.17-1.968-3.91-1.968-2.512 0-4.339 2.266-4.339 5.04 0 2.832 1.856 5.098 4.51 5.098 1.626 0 2.825-.805 3.91-1.968l2.083 2.147c-1.484 1.73-3.225 2.952-6.165 2.952" id="Fill-9" fill="#1C3F95"></path><path d="M89.917 49.11c-.884-.357-2.11-.625-3.453-.625-2.168 0-3.453.924-3.453 2.534v.06c0 1.49 1.285 2.326 2.911 2.326 2.284 0 3.995-1.342 3.995-3.31v-.984zm-.085 6.68v-1.938c-1.027 1.282-2.597 2.267-4.88 2.267-2.854 0-5.365-1.7-5.365-4.861v-.06c0-3.4 2.597-5.069 6.107-5.069 1.827 0 2.997.268 4.166.656v-.388c0-2.176-1.312-3.369-3.71-3.369-1.683 0-2.939.387-4.309.984L80.9 41.12c1.655-.775 3.282-1.312 5.736-1.312 4.452 0 6.62 2.446 6.62 6.65v9.333h-3.424z" id="Fill-10" fill="#1C3F95"></path><path d="M98.706 55.79h-3.453V40.046h3.453v2.446c.97-1.491 2.369-2.774 4.709-2.774 3.396 0 5.365 2.385 5.365 6.053v10.02h-3.453v-8.946c0-2.445-1.17-3.847-3.225-3.847-1.997 0-3.396 1.461-3.396 3.907v8.885z" id="Fill-11" fill="#1C3F95"></path><path d="M10.987 82.876c-5.822 0-10.16-4.741-10.16-10.765 0-5.963 4.253-10.823 10.303-10.823 3.681 0 5.907 1.341 7.82 3.25l-2.255 2.713c-1.598-1.55-3.31-2.594-5.594-2.594-3.824 0-6.592 3.28-6.592 7.395 0 4.114 2.768 7.455 6.592 7.455 2.455 0 4.024-1.044 5.737-2.714l2.254 2.386c-2.083 2.265-4.366 3.697-8.105 3.697" id="Fill-12" fill="#1C3F95"></path><path d="M23.714 82.518H20.26V60.751h3.454v8.469c.97-1.491 2.368-2.774 4.709-2.774 3.396 0 5.365 2.385 5.365 6.053v10.019h-3.453v-8.945c0-2.445-1.17-3.847-3.225-3.847-1.998 0-3.396 1.461-3.396 3.907v8.885z" id="Fill-13" fill="#1C3F95"></path><path d="M45.744 66.774h3.453v15.744h-3.453v-2.445c-.97 1.49-2.369 2.773-4.709 2.773-3.396 0-5.365-2.385-5.365-6.053v-10.02h3.453v8.946c0 2.446 1.17 3.847 3.225 3.847 1.998 0 3.396-1.461 3.396-3.906v-8.886z" id="Fill-14" fill="#1C3F95"></path><path d="M54.875 82.518h-3.453V66.773h3.453v3.55c.942-2.356 2.683-3.967 5.337-3.847v3.816h-.2c-3.026 0-5.137 2.058-5.137 6.233v5.993z" id="Fill-15" fill="#1C3F95"></path><path d="M67.517 82.876c-4.48 0-7.791-3.667-7.791-8.17s3.31-8.26 7.819-8.26c2.854 0 4.623 1.103 6.022 2.713l-2.14 2.416c-1.056-1.164-2.17-1.968-3.91-1.968-2.512 0-4.338 2.266-4.338 5.04 0 2.832 1.854 5.098 4.509 5.098 1.627 0 2.825-.805 3.91-1.968l2.083 2.147c-1.484 1.73-3.225 2.952-6.164 2.952" id="Fill-16" fill="#1C3F95"></path><path d="M78.19 82.518h-3.454V60.751h3.453v8.469c.97-1.491 2.369-2.774 4.709-2.774 3.396 0 5.365 2.385 5.365 6.053v10.019H84.81v-8.945c0-2.445-1.17-3.847-3.225-3.847-1.997 0-3.396 1.461-3.396 3.907v8.885z" id="Fill-17" fill="#1C3F95"></path><path d="M4.447 97.537c2.745 0 4.497-1.944 4.497-4.455v-.032c0-2.512-1.752-4.488-4.497-4.488H1.904v8.975h2.543zM.68 87.379h3.768c3.412 0 5.769 2.446 5.769 5.638v.033c0 3.191-2.357 5.67-5.769 5.67H.68V87.38z" id="Fill-18" fill="#1C3F95"></path><path d="M11.563 98.72h1.194v-8.376h-1.194v8.375zm-.078-10.207h1.365v-1.377h-1.365v1.377z" id="Fill-19" fill="#1C3F95"></path><path d="M21.022 94.572v-.032c0-1.798-1.287-3.273-2.978-3.273-1.736 0-2.93 1.475-2.93 3.24v.033c0 1.798 1.271 3.256 2.961 3.256 1.737 0 2.947-1.458 2.947-3.224m-7.133 0v-.032c0-2.365 1.767-4.374 4.186-4.374 2.404 0 4.172 1.976 4.172 4.341v.033c0 2.365-1.784 4.374-4.203 4.374-2.403 0-4.155-1.977-4.155-4.342" id="Fill-20" fill="#1C3F95"></path><path d="M22.757 94.572v-.032c0-2.365 1.768-4.374 4.11-4.374 1.519 0 2.465.664 3.21 1.49l-.791.875c-.637-.697-1.35-1.264-2.435-1.264-1.629 0-2.869 1.442-2.869 3.24v.033c0 1.814 1.272 3.256 2.947 3.256 1.023 0 1.813-.534 2.45-1.247l.76.745c-.807.94-1.768 1.62-3.273 1.62-2.341 0-4.109-1.993-4.109-4.342" id="Fill-21" fill="#1C3F95"></path><path d="M36.603 94.038c-.14-1.523-.976-2.82-2.559-2.82-1.38 0-2.434 1.2-2.605 2.82h5.164zm-2.341 3.79c1.1 0 1.876-.47 2.527-1.182l.745.697c-.807.94-1.783 1.571-3.303 1.571-2.202 0-4-1.766-4-4.374 0-2.43 1.627-4.375 3.845-4.375 2.372 0 3.737 1.977 3.737 4.44 0 .113 0 .243-.016.437H31.44c.17 1.766 1.412 2.787 2.823 2.787z" id="Fill-22" fill="#1C3F95"></path><path d="M38.09 97.65l.605-.89c.869.68 1.83 1.068 2.776 1.068.962 0 1.66-.518 1.66-1.328v-.033c0-.842-.946-1.166-2.001-1.474-1.256-.372-2.652-.826-2.652-2.365v-.032c0-1.442 1.148-2.398 2.73-2.398.977 0 2.062.357 2.884.923l-.543.94c-.744-.502-1.597-.81-2.372-.81-.947 0-1.551.518-1.551 1.215v.033c0 .793.992 1.101 2.062 1.441 1.241.389 2.574.892 2.574 2.398v.033c0 1.587-1.255 2.51-2.852 2.51-1.148 0-2.42-.47-3.32-1.23" id="Fill-23" fill="#1C3F95"></path><path d="M51.208 94.038c-.14-1.523-.976-2.82-2.559-2.82-1.38 0-2.434 1.2-2.605 2.82h5.164zm-2.341 3.79c1.1 0 1.876-.47 2.527-1.182l.745.697c-.807.94-1.783 1.571-3.303 1.571-2.202 0-4.001-1.766-4.001-4.374 0-2.43 1.628-4.375 3.846-4.375 2.372 0 3.737 1.977 3.737 4.44 0 .113 0 .243-.016.437h-6.358c.17 1.766 1.412 2.787 2.823 2.787z" id="Fill-24" fill="#1C3F95"></path><path d="M63.503 94.572v-.032c0-1.798-1.287-3.273-2.978-3.273-1.736 0-2.93 1.475-2.93 3.24v.033c0 1.798 1.272 3.256 2.962 3.256 1.737 0 2.946-1.458 2.946-3.224m-7.133 0v-.032c0-2.365 1.768-4.374 4.187-4.374 2.403 0 4.171 1.976 4.171 4.341v.033c0 2.365-1.783 4.374-4.203 4.374-2.403 0-4.155-1.977-4.155-4.342" id="Fill-25" fill="#1C3F95"></path><path d="M66.184 91.445h-1.1V90.36h1.1v-.729c0-.956.248-1.685.698-2.155.403-.421.992-.648 1.721-.648.559 0 .93.065 1.319.211v1.085c-.434-.129-.76-.21-1.163-.21-.931 0-1.396.583-1.396 1.782v.68h2.543v1.07h-2.528v7.274h-1.194v-7.275z" id="Fill-26" fill="#1C3F95"></path><path d="M77.89 93.552c1.8 0 2.978-1.005 2.978-2.495v-.033c0-1.62-1.164-2.462-2.915-2.462h-2.746v4.99h2.683zm-3.908-6.173h4.063c2.45 0 4.063 1.36 4.063 3.597v.032c0 2.446-1.954 3.71-4.264 3.71h-2.637v4.002h-1.225V87.38z" id="Fill-27" fill="#1C3F95"></path><path d="M88.775 94.038c-.14-1.523-.977-2.82-2.559-2.82-1.38 0-2.435 1.2-2.605 2.82h5.164zm-2.342 3.79c1.101 0 1.876-.47 2.528-1.182l.744.697c-.806.94-1.783 1.571-3.303 1.571-2.202 0-4-1.766-4-4.374 0-2.43 1.628-4.375 3.845-4.375 2.373 0 3.738 1.977 3.738 4.44 0 .113 0 .243-.016.437H83.61c.17 1.766 1.411 2.787 2.822 2.787z" id="Fill-28" fill="#1C3F95"></path><path d="M90.93 90.344h1.193v2.187c.59-1.393 1.753-2.398 3.272-2.334v1.346h-.093c-1.752 0-3.179 1.312-3.179 3.84v3.336H90.93v-8.375z" id="Fill-29" fill="#1C3F95"></path><path d="M96.48 96.5v-5.055h-1.117v-1.102h1.117v-2.527h1.193v2.527h2.544v1.102h-2.544v4.893c0 1.021.543 1.394 1.35 1.394.403 0 .744-.082 1.162-.292v1.069a2.896 2.896 0 0 1-1.442.356c-1.286 0-2.263-.664-2.263-2.365" id="Fill-30" fill="#1C3F95"></path><path d="M101.178 86.893h1.193v4.909c.528-.907 1.365-1.637 2.745-1.637 1.939 0 3.07 1.362 3.07 3.354v5.2h-1.194v-4.892c0-1.556-.806-2.528-2.217-2.528-1.38 0-2.404 1.054-2.404 2.625v4.796h-1.193V86.893z" id="Fill-31" fill="#1C3F95"></path><path d="M159.446 31.01l1.774.83.647-1.844.667 1.836 1.764-.846-.831 1.767 1.85.645-1.844.664.85 1.76-1.773-.83-.647 1.842-.667-1.836-1.767.847.833-1.767-1.85-.644 1.844-.665-.85-1.76zm10.32 16.71l-.85-1.76 1.773.83.647-1.845.667 1.838 1.766-.849-.833 1.77 1.85.644-1.843.665.849 1.76-1.775-.831-.645 1.843-.667-1.837-1.765.848.831-1.768-1.848-.644 1.843-.665zm-.85-26.74l1.773.83.647-1.845.667 1.838 1.766-.847-.833 1.767 1.85.645-1.843.664.849 1.76-1.775-.83-.645 1.844-.667-1.837-1.765.847.831-1.767-1.848-.645 1.843-.664-.85-1.76zm9.469 10.03l1.774.83.647-1.844.667 1.836 1.765-.846-.832 1.767 1.85.645-1.845.664.851 1.76-1.773-.83-.647 1.842-.667-1.836-1.766.847.833-1.767-1.851-.644 1.843-.665-.85-1.76zm-3.733 31.918c-4.766-2.626-11.114.832-10.814 5.823.079 1.309 1.098 3.615 2.629 3.783.81.09 1.152-1.316 2.485-.873 2.573.856-.133 4.777-1.333 6.889-1.267 2.23-2.834 5.375-5.943 3.856 1.363-2.39 2.9-4.615 1.724-7.251-.433-.966-1.646-1.644-2.24-2.362-1.392-1.684-2.11-4.389-1.558-7.098 1.495-7.353 11.615-10.606 18.823-6.67-1.164-1.46-1.206-4.37.19-6.667 2.367-4.412 4.88-4.627 8.163-8.355 1.29-1.47 3.106-4.167 3.36-6.701.51-5.025-3.158-7.059-1.898-11.5.977-3.449 3.943-5.05 5.488-7.92.863-1.601 1.738-4.127.134-5.857-3.128-3.3-6.088-6.075-9.964-9.543-.82-.795-2.655-2.499-2.676-2.482-.024-.017-1.847 1.687-2.672 2.482-29.84 26.7-36.42 48.583-36.115 63.305 0 11.259 4.35 19.055 4.35 19.055l6.888 13.01h15.465c1.172-4.865 2.646-9.183 4.346-13.38 1.876-4.638 4.749-8.187 5.11-12.956.306-3.986-1.154-7.052-3.942-8.588zm18.118-27.225c.193 1.928 1.467 3.248 2.267 4.995.18.383.729 1.275 1.115 2.262 2.278 6.038-10.351 12.034-14.46 19.008 2.108 2.417 3.502 5.662 3.363 9.17 3.517-5.939 12.837-8.933 15.021-16.51 1.49-5.178-2.062-8.353-3.007-11.72-.422-1.622.66-4.145 1.737-5.458 2.386-2.905 8.769-6.887 6.73-11.437-.005-.013-.012-.023-.019-.035a117.568 117.568 0 0 0-4.595-5.95c.344 4.193-3.523 5.689-5.67 8.25-1.371 1.638-2.815 4.088-2.482 7.425z" id="Fill-32" fill="#1C3F95"></path><path d="M159.446 31.016l1.774.83.647-1.843.667 1.836 1.764-.846-.831 1.767 1.85.645-1.844.664.85 1.759-1.773-.83-.647 1.843-.667-1.837-1.767.848.833-1.768-1.85-.644 1.844-.664-.85-1.76zm10.32 16.71l-.85-1.76 1.773.83.647-1.845.667 1.839 1.766-.848-.833 1.768 1.85.645-1.843.664.849 1.76-1.775-.83-.645 1.843-.667-1.837-1.765.847.831-1.767-1.848-.645 1.843-.664zm-.85-26.74l1.773.83.647-1.844.667 1.838 1.766-.847-.833 1.767 1.85.646-1.843.664.849 1.759-1.775-.83-.645 1.842-.667-1.836-1.765.848.831-1.767-1.848-.645 1.843-.664-.85-1.76zm9.469 10.03l1.774.83.647-1.843.667 1.836 1.765-.846-.832 1.767 1.85.645-1.845.664.851 1.759-1.773-.83-.647 1.843-.667-1.837-1.766.848.833-1.768-1.851-.644 1.843-.664-.85-1.76z" id="Fill-33" fill="#CBB778"></path><path d="M204.684 90.966c-4.424.435-8.843 2.615-10.689 6.885h14.772l3.854-7.298c.508-1.072.998-2.108 1.438-3.03-1.719 2.166-6.398 3.15-9.375 3.443m12.9-41.66c-.852-2.77-1.705-5.053-3.117-8.085.182 1.042.222 3.625-1.46 5.41-.895.95-3.057 2.507-3.986 3.35-1.467 1.326-3.974 4.115-4.277 6.61-.174 1.444.24 3.596.527 5.178.14.77.1 2.2.081 2.573-.111 2.176-1.292 3.33-2.449 4.704-4.662 5.527-12.859 6.57-17.072 11.242-.981 1.032-2.152 2.282-3.832 4.872-2.247 3.47-3.998 8.468-3.998 12.69h5.306c1.068-3.867 1.896-5.232 4.16-7.51 1.399-1.41 2.953-2.358 4.743-3.478 3.785-2.37 7.533-3.242 10.412-5.606 1.963-1.617 4.022-4.117 4.366-6.588.53-3.838-.665-5.96-.955-9.652-.12-2.138 4.52-4.679 6.932-6.433 1.187-.861 1.976-1.542 1.976-1.542s3.54-3.187 2.642-7.735" id="Fill-34" fill="#CBB778"></path></g></g></g></g></svg>